<svg id="Capa_1" enable-background="new 0 0 512.079 512.079" height="512" viewBox="0 0 512.079 512.079" width="512" xmlns="http://www.w3.org/2000/svg"><g><path d="m262.982 263.692c-21.269 21.271-33.643-8.599-63.723-8.599-30.081 0-30.081 10.075-60.163 10.075-30.083 0-30.083-10.075-60.165-10.075s-42.455 29.871-63.727 8.6c-21.271-21.269 8.599-33.643 8.599-63.723 0-30.081-10.075-30.081-10.075-60.163 0-30.083 10.075-30.083 10.075-60.165 0-30.083-29.871-42.455-8.6-63.727 21.269-21.271 33.643 8.599 63.723 8.599 30.081 0 30.081-10.075 60.163-10.075 30.083 0 30.083 10.075 60.165 10.075s42.455-29.871 63.727-8.6c21.271 21.269-8.599 33.643-8.599 63.723 0 30.081 10.075 30.081 10.075 60.163 0 30.083-17.009 32.111-9.934 61.35 8.016 33.123 29.729 41.269 8.459 62.542z" fill="#e28086"/><path d="m254.523 201.149c-7.075-29.239 9.934-31.268 9.934-61.35 0-30.081-10.075-30.081-10.075-60.163 0-30.081 29.87-42.454 8.599-63.723-12.696-12.695-22.222-7.173-34.234-.658.226.216.451.43.679.658 21.271 21.269-8.599 33.643-8.599 63.723 0 30.081 10.075 30.081 10.075 60.163 0 30.083-17.009 32.112-9.934 61.35 8.016 33.124 29.729 41.27 8.458 62.543-.227.228-.453.441-.678.657 12.012 6.516 21.539 12.038 34.233-.657 21.271-21.273-.442-29.419-8.458-62.543z" fill="#dd636e"/><path d="m379.231 379.941c-21.269 21.271-33.643-8.599-63.723-8.599-30.081 0-30.081 10.075-60.163 10.075-30.083 0-30.083-10.075-60.165-10.075s-42.455 29.871-63.727 8.6c-21.271-21.269 8.599-33.643 8.599-63.723 0-30.081-10.075-30.081-10.075-60.163 0-30.083 10.075-30.083 10.075-60.165 0-30.083-29.871-42.455-8.6-63.727 21.269-21.271 33.643 8.599 63.723 8.599 30.081 0 30.081-10.075 60.163-10.075 30.083 0 30.083 10.075 60.165 10.075 30.083 0 42.455-29.871 63.727-8.6 21.271 21.269-8.599 33.643-8.599 63.723 0 30.081 10.075 30.081 10.075 60.163 0 30.083-17.009 32.112-9.934 61.35 8.016 33.123 29.73 41.27 8.459 62.542z" fill="#e7a561"/><path d="m370.772 317.398c-7.075-29.239 9.934-31.268 9.934-61.35 0-30.081-10.075-30.081-10.075-60.163 0-30.081 29.87-42.454 8.599-63.723-12.696-12.695-22.222-7.174-34.234-.658.226.216.451.43.679.658 21.271 21.269-8.599 33.643-8.599 63.723 0 30.081 10.075 30.081 10.075 60.163 0 30.083-17.009 32.112-9.934 61.35 8.016 33.124 29.729 41.27 8.458 62.543-.227.228-.453.441-.678.657 12.012 6.516 21.539 12.038 34.233-.657 21.272-21.273-.442-29.419-8.458-62.543z" fill="#e49542"/><path d="m495.48 496.19c-21.269 21.271-33.643-8.599-63.723-8.599-30.081 0-30.081 10.075-60.163 10.075-30.083 0-30.083-10.075-60.165-10.075-30.083 0-42.455 29.871-63.727 8.6-21.271-21.269 8.599-33.643 8.599-63.723 0-30.081-10.075-30.081-10.075-60.163 0-30.083 10.075-30.083 10.075-60.165 0-30.083-29.871-42.455-8.6-63.727 21.269-21.271 33.643 8.599 63.723 8.599 30.081 0 30.081-10.075 60.163-10.075 30.083 0 30.083 10.075 60.165 10.075 30.083 0 42.455-29.871 63.727-8.6 21.271 21.269-8.599 33.643-8.599 63.723 0 30.081 10.075 30.081 10.075 60.163 0 30.083-17.009 32.112-9.934 61.35 8.016 33.123 29.73 41.27 8.459 62.542z" fill="#95d6a4"/><path d="m487.022 433.648c-7.075-29.239 9.934-31.268 9.934-61.35 0-30.081-10.075-30.081-10.075-60.163 0-30.081 29.87-42.454 8.599-63.723-12.696-12.695-22.222-7.174-34.234-.658.226.216.451.43.679.658 21.271 21.269-8.599 33.643-8.599 63.723 0 30.081 10.075 30.081 10.075 60.163 0 30.083-17.009 32.112-9.934 61.35 8.016 33.124 29.729 41.27 8.458 62.543-.227.228-.453.441-.678.657 12.012 6.516 21.539 12.038 34.233-.657 21.271-21.273-.443-29.42-8.458-62.543z" fill="#78c2a4"/><path d="m504.67 457.372c-3.645-6.941-7.774-14.81-10.358-25.488-3.309-13.673-.68-19.705 2.961-28.054 3.2-7.34 7.183-16.475 7.183-31.532 0-9.622-.95-17.332-3.081-24.997-1.108-3.99-5.245-6.328-9.234-5.218-3.99 1.109-6.326 5.244-5.217 9.235 1.179 4.242 2.532 10.461 2.532 20.979 0 11.93-2.882 18.539-5.933 25.537-4.073 9.343-8.285 19.003-3.791 37.576 3.021 12.482 7.81 21.604 11.657 28.934 6.873 13.091 8.72 16.609-1.213 26.543-8.122 8.123-12.404 6.397-24.719-.289-8.623-4.682-19.353-10.508-33.7-10.508-16.264 0-24.499 2.759-32.464 5.426-7.139 2.391-13.882 4.649-27.699 4.649-13.819 0-20.562-2.259-27.701-4.649-7.965-2.667-16.2-5.426-32.464-5.426-14.349 0-25.079 5.826-33.702 10.508-12.312 6.687-16.596 8.415-24.722.288-8.125-8.124-6.397-12.406.288-24.72 4.682-8.622 10.507-19.353 10.507-33.699 0-16.264-2.758-24.499-5.425-32.464-2.391-7.139-4.649-13.882-4.649-27.699 0-13.819 2.258-20.562 4.649-27.701 2.667-7.965 5.425-16.2 5.425-32.464 0-14.349-5.826-25.079-10.507-33.702-6.686-12.313-8.413-16.597-.288-24.723 8.124-8.123 12.406-6.398 24.719.289 8.622 4.682 19.354 10.508 33.7 10.508 16.263 0 24.498-2.758 32.463-5.426 7.139-2.391 13.882-4.649 27.7-4.649s20.562 2.259 27.7 4.649c7.965 2.667 16.2 5.426 32.465 5.426 14.349 0 25.079-5.826 33.702-10.508 12.312-6.685 16.597-8.413 24.723-.288 8.124 8.123 6.396 12.405-.289 24.719-4.682 8.622-10.508 19.353-10.508 33.7 0 2.668.077 5.175.234 7.663.264 4.133 3.806 7.266 7.961 7.01 4.134-.263 7.271-3.827 7.01-7.961-.138-2.168-.205-4.364-.205-6.712 0-10.538 4.418-18.674 8.69-26.543 6.63-12.211 14.145-26.052-2.288-42.483-16.434-16.432-30.275-8.916-42.485-2.287-7.869 4.272-16.006 8.69-26.545 8.69-13.819 0-20.562-2.259-27.701-4.649-4.922-1.649-9.953-3.33-16.913-4.375-1.05-6.975-2.725-12.001-4.36-16.887-2.39-7.145-4.647-13.894-4.647-27.714 0-10.538 4.418-18.675 8.69-26.543 6.63-12.212 14.145-26.053-2.288-42.484s-30.274-8.918-42.485-2.287c-7.869 4.272-16.006 8.69-26.545 8.69-13.819 0-20.562-2.259-27.701-4.649-4.922-1.648-9.953-3.329-16.913-4.375-1.05-6.974-2.725-12-4.359-16.886-2.39-7.146-4.647-13.894-4.647-27.716 0-10.537 4.418-18.674 8.689-26.542 6.303-11.607 14.146-26.053-2.287-42.484-16.436-16.434-30.879-8.589-42.486-2.287-7.869 4.272-16.005 8.69-26.544 8.69-22.386 0-26.345-5.937-43.201-8.789-4.086-.686-7.955 2.062-8.646 6.146-.69 4.084 2.061 7.954 6.145 8.646 14.691 2.482 20.697 8.998 45.702 8.998 14.349 0 25.08-5.826 33.702-10.508 12.313-6.687 16.596-8.415 24.722-.288 8.124 8.124 6.397 12.406-.289 24.72-4.681 8.622-10.507 19.353-10.507 33.699 0 16.264 2.756 24.505 5.422 32.474 1.177 3.52 2.313 6.918 3.167 11.079-.046 0-.088-.001-.134-.001-16.264 0-24.499 2.759-32.463 5.426-7.139 2.391-13.881 4.649-27.699 4.649-10.538 0-18.674-4.418-26.542-8.689-12.211-6.632-26.052-14.144-42.484 2.287-16.433 16.434-8.917 30.274-2.287 42.486 4.272 7.869 8.69 16.006 8.69 26.544 0 13.819-2.258 20.562-4.649 27.701-2.667 7.965-5.426 16.201-5.426 32.465 0 .043.001.082.001.125-4.159-.854-7.555-1.989-11.073-3.166-7.97-2.666-16.21-5.422-32.475-5.422-14.348 0-25.079 5.826-33.702 10.508-12.315 6.686-16.597 8.413-24.722.288-8.125-8.124-6.397-12.406.288-24.72 4.682-8.622 10.508-19.353 10.508-33.7 0-16.263-2.758-24.498-5.426-32.463-2.391-7.139-4.649-13.882-4.649-27.7s2.258-20.562 4.649-27.7c2.667-7.965 5.426-16.2 5.426-32.465 0-14.349-5.826-25.079-10.508-33.702-6.686-12.313-8.413-16.597-.289-24.723 8.125-8.123 12.407-6.396 24.72.289 8.622 4.682 19.353 10.508 33.7 10.508 25.685 0 31.277-6.873 46.993-9.206 4.097-.609 6.925-4.425 6.316-8.521-.608-4.098-4.425-6.914-8.521-6.316-18.145 2.698-21.682 9.044-44.788 9.044-26.411 0-43.432-32-69.027-6.402-16.432 16.429-8.917 30.271-2.287 42.482 4.272 7.869 8.69 16.006 8.69 26.545 0 13.819-2.258 20.562-4.649 27.701-2.667 7.965-5.426 16.2-5.426 32.464s2.758 24.499 5.426 32.464c2.391 7.139 4.649 13.882 4.649 27.699 0 10.538-4.417 18.675-8.69 26.543-6.63 12.212-14.145 26.053 2.288 42.484 7.337 7.336 14.155 9.899 20.544 9.898 7.921-.001 15.182-3.941 21.941-7.611 7.869-4.272 16.006-8.69 26.544-8.69 13.822 0 20.571 2.258 27.717 4.647 4.884 1.633 9.909 3.308 16.879 4.358 1.045 6.964 2.727 11.997 4.376 16.921 2.391 7.139 4.649 13.881 4.649 27.699 0 10.538-4.418 18.675-8.69 26.543-6.631 12.212-14.146 26.053 2.287 42.484 7.53 7.529 14.619 9.837 20.749 9.837 4.526 0 8.53-1.259 11.803-2.602 3.832-1.573 5.664-5.954 4.091-9.786s-5.955-5.665-9.786-4.091c-5.776 2.373-9.875 2.409-16.25-3.966-8.125-8.124-6.397-12.406.289-24.72 4.682-8.622 10.508-19.353 10.508-33.7 0-16.263-2.758-24.499-5.426-32.463-2.391-7.139-4.649-13.881-4.649-27.699 0-13.819 2.258-20.563 4.649-27.701 2.667-7.965 5.426-16.201 5.426-32.465 0-14.348-5.826-25.079-10.508-33.701-6.686-12.314-8.413-16.597-.288-24.723 8.124-8.123 12.406-6.397 24.719.288 8.623 4.682 19.353 10.508 33.7 10.508 16.263 0 24.499-2.759 32.463-5.426 7.139-2.391 13.881-4.649 27.7-4.649s20.562 2.259 27.701 4.649c7.965 2.667 16.201 5.426 32.465 5.426 14.349 0 25.079-5.826 33.702-10.508 12.313-6.687 16.598-8.413 24.723-.288 8.124 8.123 6.396 12.406-.289 24.72-4.682 8.622-10.508 19.353-10.508 33.7 0 16.263 2.757 24.503 5.422 32.472 1.178 3.52 2.314 6.919 3.168 11.081-.046 0-.088-.001-.134-.001-16.264 0-24.499 2.759-32.464 5.426-7.139 2.391-13.882 4.649-27.699 4.649-10.537 0-18.674-4.418-26.542-8.69-12.214-6.63-26.055-14.146-42.485 2.288-16.432 16.433-8.917 30.274-2.287 42.485 4.272 7.869 8.69 16.006 8.69 26.545 0 13.818-2.258 20.562-4.649 27.7-2.667 7.965-5.426 16.201-5.426 32.465 0 .043.001.083.001.126-4.159-.854-7.556-1.99-11.074-3.167-7.969-2.665-16.21-5.422-32.474-5.422-3.634 0-7.298.385-10.889 1.144-4.053.855-6.645 4.835-5.788 8.888.856 4.052 4.837 6.643 8.888 5.788 2.611-.552 5.159-.819 7.79-.819 13.821 0 20.57 2.258 27.715 4.647 4.885 1.633 9.91 3.309 16.88 4.358 1.045 6.963 2.727 11.996 4.376 16.92 2.391 7.139 4.649 13.882 4.649 27.7 0 10.537-4.417 18.674-8.69 26.542-6.63 12.212-14.145 26.053 2.288 42.484 7.337 7.337 14.155 9.899 20.544 9.899 7.921-.001 15.183-3.942 21.941-7.612 7.869-4.272 16.006-8.69 26.545-8.69 13.818 0 20.562 2.259 27.7 4.649 7.965 2.667 16.2 5.426 32.465 5.426 16.263 0 24.499-2.759 32.463-5.426 7.139-2.391 13.882-4.649 27.7-4.649 10.538 0 18.674 4.418 26.542 8.689 12.212 6.631 26.052 14.147 42.484-2.287 17.74-17.737 11.011-30.553 3.889-44.121z"/></g></svg>